<svg width="61" height="46" viewBox="0 0 61 46" fill="none" xmlns="http://www.w3.org/2000/svg">
<path d="M34.792 1.63297C34.9694 1.62411 35.129 1.60935 35.2896 1.60935C40.3613 1.60935 45.4329 1.59755 50.5045 1.61329C54.8773 1.62706 58.6493 4.60163 59.6505 8.78944C60.9937 14.407 56.845 19.9094 51.0379 20.2134C50.91 20.2203 50.7821 20.2361 50.5432 20.2587C54.0257 25.0103 57.4616 29.699 60.9581 34.4703C60.6993 34.4703 60.5427 34.4703 60.3851 34.4703C58.452 34.4703 56.5199 34.4605 54.5868 34.4791C54.2309 34.4831 54.0277 34.365 53.8225 34.0836C50.5471 29.5986 47.2569 25.1235 43.9816 20.6385C43.7665 20.3443 43.5533 20.2046 43.1737 20.2174C42.2359 20.2469 41.2971 20.2272 40.3077 20.2272V34.4398H34.793L34.792 1.63297ZM40.3206 3.16502V18.7798C40.4624 18.7867 40.5744 18.7975 40.6874 18.7975C42.5709 18.7975 44.4545 18.8162 46.338 18.7867C47.0101 18.7758 47.6971 18.7168 48.3504 18.5643C52.0887 17.6925 54.5343 14.3292 54.3687 10.3402C54.224 6.85986 51.2262 3.49269 47.7318 3.2034C45.2911 3.0007 42.8188 3.16404 40.3216 3.16404L40.3206 3.16502Z" fill="#BF9539"/>
<path d="M7.20664 28.1365C6.42151 28.0106 5.65422 27.9692 4.9365 27.7587C2.57219 27.064 1.06636 25.4965 0.322869 23.1625C-0.271927 21.2949 0.0839591 19.5749 1.02175 17.9287C1.17541 17.6591 1.16748 17.481 1.01283 17.2252C0.222745 15.9214 -0.180725 14.4868 0.0780111 12.9931C0.696599 9.4183 3.37913 7.2506 6.65844 7.13744C6.82101 7.13154 6.98458 7.13744 7.16699 7.13744C7.22845 6.5687 7.24134 6.02751 7.35038 5.506C7.91941 2.804 9.56302 1.07121 12.2138 0.26632C13.9923 -0.273884 15.6607 0.0459092 17.2716 0.881307C17.5323 1.01611 17.5987 1.18831 17.6126 1.46284C17.6413 2.03847 17.5164 2.48716 17.0981 2.96045C15.1184 5.20196 15.2156 8.51993 17.2567 10.7181C17.8039 11.3075 17.7563 12.4736 17.1724 13.0452C16.5836 13.6209 16.0106 14.2113 15.4208 14.7849C14.5038 15.6754 13.457 15.6803 12.538 14.7849C11.4059 13.6829 10.2867 12.567 9.16947 11.4502C8.31296 10.5932 7.73403 9.5718 7.43762 8.40382C7.36426 8.11552 7.25224 7.99449 6.94394 7.99744C4.78681 8.02302 3.05794 8.87121 1.89115 10.6847C0.669833 12.5828 0.642076 14.5714 1.63737 16.5826C1.67206 16.6515 1.73254 16.7086 1.79697 16.7932C2.17962 16.4813 2.52956 16.1635 2.91221 15.8889C5.44406 14.0745 9.05547 14.2398 11.3266 16.3721C13.4024 18.3204 15.3871 20.3631 17.4074 22.3694C17.4946 22.456 17.5878 22.5879 17.5888 22.6991C17.5957 23.3997 17.6701 24.0451 17.0882 24.6887C15.0897 26.8977 15.2334 30.316 17.3102 32.4759C17.8882 33.0771 17.7256 34.0994 16.9722 34.4399C12.3893 36.5092 7.37616 33.5494 7.22845 28.5695C7.22349 28.4091 7.21259 28.2497 7.20664 28.1375V28.1365ZM1.85348 18.401C1.78607 18.4345 1.75038 18.4424 1.73055 18.464C1.69784 18.4994 1.67008 18.5418 1.64728 18.585C0.63712 20.5747 0.672807 22.5495 1.85645 24.4387C3.02324 26.3014 4.78681 27.1555 6.97963 27.1791C7.27504 27.1821 7.36525 27.0384 7.43167 26.7806C7.67653 25.832 8.06414 24.9356 8.74122 24.2183C9.85844 23.0346 11.0183 21.8892 12.1772 20.7449C12.5578 20.369 12.99 20.0453 13.4272 19.6733C13.3767 19.6182 13.2835 19.509 13.1814 19.4086C12.4934 18.7238 11.8024 18.0419 11.1145 17.357C9.54617 15.7945 7.66959 15.2159 5.49759 15.6744C4.23564 15.9411 3.18384 16.5826 2.33625 17.5863C3.15707 18.5654 4.17219 19.1784 5.3707 19.4765C7.27207 19.9488 8.99599 19.511 10.5811 18.3459C10.7695 18.5713 10.9311 18.7651 11.1184 18.9895C10.0379 19.878 8.8463 20.3631 7.52188 20.4881C5.29834 20.6976 3.4049 19.9567 1.8505 18.402L1.85348 18.401ZM17.0872 11.8851C14.0577 8.50714 13.9982 5.14193 16.9375 1.72458C16.88 1.68227 16.8314 1.63897 16.7759 1.60748C14.37 0.26632 11.2294 0.882291 9.42325 3.04803C7.6567 5.16653 7.62597 8.39989 9.45398 10.4338C10.6614 11.7779 11.9908 13.0147 13.2825 14.2831C13.6998 14.6924 14.2421 14.6905 14.6614 14.289C15.4803 13.5048 16.2743 12.694 17.0872 11.8851ZM17.1526 23.319C16.2822 22.4639 15.4743 21.6452 14.6356 20.858C14.2332 20.4792 13.6612 20.5117 13.2478 20.9171C12.0146 22.1274 10.7586 23.318 9.58186 24.5824C7.9313 26.3555 7.64481 28.9257 8.76302 31.1377C9.79599 33.1814 12.1058 34.4478 14.4562 34.247C15.3484 34.1713 16.19 33.9331 16.991 33.4165C15.5576 32.0016 14.7843 30.3515 14.8042 28.3756C14.825 26.3811 15.6369 24.73 17.1506 23.319H17.1526Z" fill="#BF9539"/>
<path d="M23.8393 18.7483H19.2961V17.3294H29.595V17.844C29.595 21.8764 29.591 25.9087 29.6019 29.9411C29.6019 30.2825 29.5067 30.5137 29.244 30.7391C26.4852 33.1085 23.2921 34.5175 19.6916 35.039C19.5667 35.0568 19.4368 35.041 19.2852 35.041V33.7904C19.991 33.6526 20.6889 33.5867 21.3382 33.3722C22.1144 33.1164 22.8549 32.7474 23.5945 32.3931C23.7332 32.3262 23.88 32.1009 23.88 31.9484C23.8948 27.6376 23.8928 23.3268 23.8909 19.015C23.8909 18.9372 23.8621 18.8595 23.8393 18.7473V18.7483Z" fill="#BF9539"/>
<path d="M19.2793 2.33454V1.05537C21.6734 0.780839 27.3715 3.32049 29.5316 5.60824C29.1876 5.92803 28.8426 6.24782 28.4629 6.60009C26.0164 4.06929 22.9997 2.49099 19.2793 2.33454Z" fill="#BF9539"/>
<path d="M11.1407 45.5538V40.5956C11.333 40.5857 11.5045 40.5769 11.7117 40.5661V45.8835C11.4648 45.8835 11.221 45.8618 10.982 45.8894C10.6747 45.9248 10.5102 45.8048 10.3674 45.5371C9.59716 44.0897 8.80807 42.6511 8.02492 41.2106C7.97833 41.125 7.92579 41.0433 7.80187 40.8376V45.8559H7.2041V40.5729C7.53719 40.5729 7.87919 40.5444 8.21228 40.5877C8.33223 40.6035 8.4621 40.7737 8.53149 40.9026C9.33843 42.3874 10.1345 43.8771 10.9335 45.3659C10.9711 45.4358 11.0138 45.5037 11.0534 45.5716C11.0832 45.5657 11.1119 45.5598 11.1417 45.5548L11.1407 45.5538Z" fill="#BF9539"/>
<path d="M55.3116 43.2503C55.3027 41.6799 56.5022 40.4785 58.0873 40.4716C59.6843 40.4647 60.9066 41.6465 60.9126 43.2041C60.9185 44.7765 59.718 45.9769 58.1339 45.9829C56.5299 45.9888 55.3205 44.8178 55.3116 43.2513V43.2503ZM55.9252 43.2346C55.9292 44.5059 56.8808 45.4899 58.1071 45.4899C59.3443 45.4899 60.291 44.5197 60.2979 43.2425C60.3049 41.9426 59.3502 40.9557 58.0903 40.9626C56.868 40.9695 55.9212 41.9623 55.9252 43.2346Z" fill="#BF9539"/>
<path d="M19.1457 41.9101C18.9742 41.9524 18.8017 41.9948 18.5935 42.0469C18.3705 41.3168 17.8986 40.9124 17.1075 40.9645C16.5593 41.0009 16.1499 41.3109 16.0845 41.7291C16.0121 42.1935 16.25 42.4995 16.8557 42.7052C17.3692 42.8794 17.8946 43.024 18.3992 43.2218C18.9454 43.4353 19.2022 43.8663 19.2181 44.4508C19.2329 45.0234 18.9524 45.4131 18.4775 45.6896C17.3266 46.3607 15.7147 45.8854 15.3519 44.7696C15.337 44.7253 15.341 44.6751 15.3301 44.5728C15.4956 44.5344 15.6612 44.496 15.8188 44.4596C16.4007 45.3855 16.9787 45.6679 17.8024 45.4318C18.2228 45.3117 18.5618 45.0933 18.5945 44.6053C18.6262 44.1162 18.3368 43.8476 17.9125 43.7C17.4932 43.5544 17.0639 43.4392 16.6436 43.2975C15.7762 43.0043 15.3935 42.5281 15.45 41.8275C15.5055 41.1377 16.0319 40.6487 16.8835 40.4932C17.9819 40.2935 18.9127 40.8651 19.1477 41.9072L19.1457 41.9101Z" fill="#BF9539"/>
<path d="M40.8202 40.5837H41.3981C41.3981 40.7412 41.3981 40.8966 41.3981 41.0521C41.3981 41.9869 41.3902 42.9207 41.4011 43.8555C41.413 44.8719 42.0494 45.4997 43.0338 45.4899C44.0132 45.48 44.609 44.8778 44.6169 43.8683C44.6259 42.7888 44.6189 41.7104 44.6189 40.6005H45.182C45.182 41.8541 45.2563 43.0998 45.1592 44.3327C45.0769 45.3669 44.1044 46.0055 42.9257 45.9818C41.8065 45.9592 40.9004 45.2547 40.837 44.2126C40.7646 43.024 40.8202 41.8265 40.8202 40.5837Z" fill="#BF9539"/>
<path d="M23.9677 41.059H22.1625C22.1526 40.8967 22.1437 40.7609 22.1338 40.5956H26.3777V41.0443H24.5645V45.8599H23.9677V41.059Z" fill="#BF9539"/>
<path d="M35.8728 45.8648H35.2562V41.0639H33.4619V40.5906H37.6721C37.683 40.7304 37.6929 40.8662 37.7068 41.059H35.8728V45.8648Z" fill="#BF9539"/>
<path d="M50.7469 45.8648H50.1312V41.0679H48.335V40.5927H52.5402C52.5521 40.7255 52.565 40.8613 52.5828 41.0541H50.7479V45.8648H50.7469Z" fill="#BF9539"/>
<path d="M3.04688 40.5897H3.58951V45.8598C3.42582 45.8687 3.25421 45.8776 3.04688 45.8874V40.5897Z" fill="#BF9539"/>
<path d="M30.154 45.8608H29.6064V40.5936C29.7771 40.5857 29.9487 40.5778 30.154 40.568V45.8608Z" fill="#BF9539"/>
</svg>
